name rise30.9205peak61.366fall85.3838.mot
datacolumns 19
datarows 27
range 16.46494100000000 16.50827400000000
endheader
time	ground_force1_vx	ground_force1_vy	ground_force1_vz	ground_force1_px	ground_force1_py	ground_force1_pz	ground_force2_vx	ground_force2_vy	ground_force2_vz	ground_force2_px	ground_force2_py	ground_force2_pz	ground_torque1_x	ground_torque1_y	ground_torque1_z	ground_torque2_x	ground_torque2_y	ground_torque2_z	
16.46494100000000	-3.71234700000000	695.18196599999999	40.97387900000000	0.22200000000000	0.00000000000000	0.10682900000000	0.00000000000000	0.00000000000000	0.00000000000000	0.00000000000000	0.00000000000000	0.00000000000000	0.00000000000000	18.56800600000000	0.00000000000000	0.00000000000000	0.00000000000000	0.00000000000000	
16.46662100000000	-4.32373200000000	696.12877600000002	41.01329200000000	0.22130400000000	0.00000000000000	0.10679300000000	0.00000000000000	0.00000000000000	0.00000000000000	0.00000000000000	0.00000000000000	0.00000000000000	0.00000000000000	18.67542800000000	0.00000000000000	0.00000000000000	0.00000000000000	0.00000000000000	
16.46827500000000	-4.94644700000000	697.10415599999999	41.05471000000000	0.22060900000000	0.00000000000000	0.10675600000000	0.00000000000000	0.00000000000000	0.00000000000000	0.00000000000000	0.00000000000000	0.00000000000000	0.00000000000000	18.78607700000000	0.00000000000000	0.00000000000000	0.00000000000000	0.00000000000000	
16.46993700000000	-5.58072700000000	698.10869200000002	41.09824000000000	0.21991300000000	0.00000000000000	0.10671900000000	0.00000000000000	0.00000000000000	0.00000000000000	0.00000000000000	0.00000000000000	0.00000000000000	0.00000000000000	18.89990200000000	0.00000000000000	0.00000000000000	0.00000000000000	0.00000000000000	
16.47162400000000	-6.22676500000000	699.14304900000002	41.14399600000000	0.21921300000000	0.00000000000000	0.10668100000000	0.00000000000000	0.00000000000000	0.00000000000000	0.00000000000000	0.00000000000000	0.00000000000000	0.00000000000000	19.01685100000000	0.00000000000000	0.00000000000000	0.00000000000000	0.00000000000000	
16.47327700000000	-6.88471000000000	700.20796399999995	41.19210100000000	0.21850800000000	0.00000000000000	0.10664200000000	0.00000000000000	0.00000000000000	0.00000000000000	0.00000000000000	0.00000000000000	0.00000000000000	0.00000000000000	19.13686500000000	0.00000000000000	0.00000000000000	0.00000000000000	0.00000000000000	
16.47494000000000	-7.55466800000000	701.30424000000005	41.24268600000000	0.21779500000000	0.00000000000000	0.10660400000000	0.00000000000000	0.00000000000000	0.00000000000000	0.00000000000000	0.00000000000000	0.00000000000000	0.00000000000000	19.25988800000000	0.00000000000000	0.00000000000000	0.00000000000000	0.00000000000000	
16.47660100000000	-8.23669800000000	702.43273399999998	41.29588800000000	0.21707200000000	0.00000000000000	0.10656600000000	0.00000000000000	0.00000000000000	0.00000000000000	0.00000000000000	0.00000000000000	0.00000000000000	0.00000000000000	19.38585600000000	0.00000000000000	0.00000000000000	0.00000000000000	0.00000000000000	
16.47827400000000	-8.93081300000000	703.59434599999997	41.35185100000000	0.21633800000000	0.00000000000000	0.10652700000000	0.00000000000000	0.00000000000000	0.00000000000000	0.00000000000000	0.00000000000000	0.00000000000000	0.00000000000000	19.51470400000000	0.00000000000000	0.00000000000000	0.00000000000000	0.00000000000000	
16.47993600000000	-9.63697300000000	704.79001300000004	41.41072200000000	0.21559000000000	0.00000000000000	0.10648900000000	0.00000000000000	0.00000000000000	0.00000000000000	0.00000000000000	0.00000000000000	0.00000000000000	0.00000000000000	19.64636500000000	0.00000000000000	0.00000000000000	0.00000000000000	0.00000000000000	
16.48162200000000	-10.35509000000000	706.02069300000005	41.47265700000000	0.21482800000000	0.00000000000000	0.10645100000000	0.00000000000000	0.00000000000000	0.00000000000000	0.00000000000000	0.00000000000000	0.00000000000000	0.00000000000000	19.78076400000000	0.00000000000000	0.00000000000000	0.00000000000000	0.00000000000000	
16.48327000000000	-11.08502700000000	707.28735800000004	41.53781300000000	0.21404800000000	0.00000000000000	0.10641400000000	0.00000000000000	0.00000000000000	0.00000000000000	0.00000000000000	0.00000000000000	0.00000000000000	0.00000000000000	19.91782700000000	0.00000000000000	0.00000000000000	0.00000000000000	0.00000000000000	
16.48493600000000	-11.82659000000000	708.59098200000005	41.60635100000000	0.21325100000000	0.00000000000000	0.10637700000000	0.00000000000000	0.00000000000000	0.00000000000000	0.00000000000000	0.00000000000000	0.00000000000000	0.00000000000000	20.05747100000000	0.00000000000000	0.00000000000000	0.00000000000000	0.00000000000000	
16.48660800000000	-12.57953500000000	709.93253000000004	41.67843500000000	0.21243500000000	0.00000000000000	0.10634100000000	0.00000000000000	0.00000000000000	0.00000000000000	0.00000000000000	0.00000000000000	0.00000000000000	0.00000000000000	20.19961300000000	0.00000000000000	0.00000000000000	0.00000000000000	0.00000000000000	
16.48827200000000	-13.34356500000000	711.31294400000002	41.75423200000000	0.21159900000000	0.00000000000000	0.10630600000000	0.00000000000000	0.00000000000000	0.00000000000000	0.00000000000000	0.00000000000000	0.00000000000000	0.00000000000000	20.34416200000000	0.00000000000000	0.00000000000000	0.00000000000000	0.00000000000000	
16.48994200000000	-14.11833000000000	712.73313700000006	41.83390900000000	0.21074100000000	0.00000000000000	0.10627100000000	0.00000000000000	0.00000000000000	0.00000000000000	0.00000000000000	0.00000000000000	0.00000000000000	0.00000000000000	20.49102400000000	0.00000000000000	0.00000000000000	0.00000000000000	0.00000000000000	
16.49161200000000	-14.90342400000000	714.19397600000002	41.91763500000000	0.20986200000000	0.00000000000000	0.10623800000000	0.00000000000000	0.00000000000000	0.00000000000000	0.00000000000000	0.00000000000000	0.00000000000000	0.00000000000000	20.64009900000000	0.00000000000000	0.00000000000000	0.00000000000000	0.00000000000000	
16.49327500000000	-15.69839000000000	715.69627400000002	42.00557800000000	0.20896000000000	0.00000000000000	0.10620600000000	0.00000000000000	0.00000000000000	0.00000000000000	0.00000000000000	0.00000000000000	0.00000000000000	0.00000000000000	20.79128400000000	0.00000000000000	0.00000000000000	0.00000000000000	0.00000000000000	
16.49494200000000	-16.50271800000000	717.24078099999997	42.09790700000000	0.20803600000000	0.00000000000000	0.10617400000000	0.00000000000000	0.00000000000000	0.00000000000000	0.00000000000000	0.00000000000000	0.00000000000000	0.00000000000000	20.94446800000000	0.00000000000000	0.00000000000000	0.00000000000000	0.00000000000000	
16.49661500000000	-17.31584600000000	718.82816700000001	42.19478800000000	0.20708900000000	0.00000000000000	0.10614400000000	0.00000000000000	0.00000000000000	0.00000000000000	0.00000000000000	0.00000000000000	0.00000000000000	0.00000000000000	21.09953600000000	0.00000000000000	0.00000000000000	0.00000000000000	0.00000000000000	
16.49827400000000	-18.13716200000000	720.45901900000001	42.29638700000000	0.20611900000000	0.00000000000000	0.10611500000000	0.00000000000000	0.00000000000000	0.00000000000000	0.00000000000000	0.00000000000000	0.00000000000000	0.00000000000000	21.25636800000000	0.00000000000000	0.00000000000000	0.00000000000000	0.00000000000000	
16.49993500000000	-18.96600100000000	722.13382300000001	42.40286600000000	0.20512700000000	0.00000000000000	0.10608800000000	0.00000000000000	0.00000000000000	0.00000000000000	0.00000000000000	0.00000000000000	0.00000000000000	0.00000000000000	21.41483600000000	0.00000000000000	0.00000000000000	0.00000000000000	0.00000000000000	
16.50161500000000	-19.80165400000000	723.85296300000005	42.51438500000000	0.20411200000000	0.00000000000000	0.10606100000000	0.00000000000000	0.00000000000000	0.00000000000000	0.00000000000000	0.00000000000000	0.00000000000000	0.00000000000000	21.57480800000000	0.00000000000000	0.00000000000000	0.00000000000000	0.00000000000000	
16.50327400000000	-20.64336200000000	725.61670400000003	42.63110000000000	0.20307600000000	0.00000000000000	0.10603600000000	0.00000000000000	0.00000000000000	0.00000000000000	0.00000000000000	0.00000000000000	0.00000000000000	0.00000000000000	21.73614700000000	0.00000000000000	0.00000000000000	0.00000000000000	0.00000000000000	
16.50493900000000	-21.49032200000000	727.42518900000005	42.75316200000000	0.20201800000000	0.00000000000000	0.10601100000000	0.00000000000000	0.00000000000000	0.00000000000000	0.00000000000000	0.00000000000000	0.00000000000000	0.00000000000000	21.89870800000000	0.00000000000000	0.00000000000000	0.00000000000000	0.00000000000000	
16.50662100000000	-22.34168800000000	729.27842699999997	42.88071700000000	0.20094100000000	0.00000000000000	0.10598900000000	0.00000000000000	0.00000000000000	0.00000000000000	0.00000000000000	0.00000000000000	0.00000000000000	0.00000000000000	22.06234100000000	0.00000000000000	0.00000000000000	0.00000000000000	0.00000000000000	
16.50827400000000	-23.19657500000000	731.17628800000000	43.01390500000000	0.19984500000000	0.00000000000000	0.10596700000000	0.00000000000000	0.00000000000000	0.00000000000000	0.00000000000000	0.00000000000000	0.00000000000000	0.00000000000000	22.22689100000000	0.00000000000000	0.00000000000000	0.00000000000000	0.00000000000000	
